<?xml version="1.0" encoding="utf-8"?>
<!-- Generator: Adobe Illustrator 22.0.0, SVG Export Plug-In . SVG Version: 6.00 Build 0)  -->
<svg version="1.1" id="Livello_1" xmlns="http://www.w3.org/2000/svg" xmlns:xlink="http://www.w3.org/1999/xlink" x="0px" y="0px"
	 viewBox="0 0 80 80" style="enable-background:new 0 0 80 80;" xml:space="preserve">
<style type="text/css">
	.st0{fill:#FFFFFF;}
</style>
<g id="XMLID_129_">
	<path id="XMLID_134_" class="st0" d="M70,5.9H34.1c-1.2,0-2.2,1-2.2,2.2v15.2l1.6-1.8c0.7-0.9,1.7-1.4,2.8-1.6v-9.6h31.5v28.2H36.3
		v-4.7l-1,1.1c-0.8,1-2,1.6-3.3,1.7v4c0,1.2,1,2.2,2.2,2.2h11.6l-5.9,26.8c-0.3,1.2,0.5,2.4,1.7,2.7c1.2,0.3,2.4-0.5,2.7-1.7
		l6.1-27.8h3.6L60,70.5c0.2,1,1.2,1.8,2.2,1.7c0.2,0,0.3,0,0.5-0.1c1.2-0.3,2-1.5,1.7-2.7l-5.9-26.8H70c1.2,0,2.2-1,2.2-2.2V8.1
		C72.1,6.9,71.2,5.9,70,5.9z"/>
	<path id="XMLID_132_" class="st0" d="M52.8,18.5c-0.2-0.4-0.7-0.6-1.1-0.5l-12.7,4.5c-1.2-0.9-2.8-0.7-3.8,0.4l-4,4.7l-3.6-3.1
		c0,0.3,0.1,0.5,0.1,0.8V32l2,1.7c1.2,1,2.9,0.9,3.9-0.3l4.8-5.6l3.9-2.3l10.2-6C52.8,19.3,53,18.9,52.8,18.5z"/>
	<path id="XMLID_131_" class="st0" d="M19.9,19.7h-2.4c-1.8,0-3.4,0.9-4.5,2.2l-7.3,6.8c-1.1,1-1.2,2.8-0.2,3.9l6,6.7
		c1,1.1,2.8,1.2,3.9,0.2c1.1-1,1.2-2.8,0.2-3.9L11.5,31l5.9-5.3l-3.4,4.6l3.3,3.7c1.8,2.1,1.7,5.2-0.4,7.1c-1.4,1.3-3.3,1.6-5,1
		c0,0,0,12.9,0,26.7c0,1.8,1.5,3.3,3.3,3.3c1.8,0,3.3-1.5,3.3-3.3c0-13.8,0-5.9,0-19.9h2.2c0,14,0,6.1,0,19.9c0,1-0.3,1.9-0.7,2.6
		c0.6,0.4,1.3,0.7,2,0.7c1.8,0,3.3-1.5,3.3-3.3c0-13.8,0-8,0-43.6C25.5,22.2,23,19.7,19.9,19.7z"/>
	<path id="XMLID_130_" class="st0" d="M15.7,17.7c0.9,0.5,1.9,0.8,3,0.8c1.1,0,2.1-0.3,3-0.8c2.1-1.1,3.5-3.2,3.5-5.8
		c0-3.6-2.9-6.5-6.5-6.5c-3.6,0-6.5,2.9-6.5,6.5C12.2,14.5,13.6,16.6,15.7,17.7z"/>
</g>
</svg>
