<?xml version="1.0" encoding="utf-8"?>
<!-- Generator: Adobe Illustrator 22.0.0, SVG Export Plug-In . SVG Version: 6.00 Build 0)  -->
<svg version="1.1" id="Livello_1" xmlns="http://www.w3.org/2000/svg" xmlns:xlink="http://www.w3.org/1999/xlink" x="0px" y="0px"
	 viewBox="0 0 80 80" style="enable-background:new 0 0 80 80;" xml:space="preserve">
<style type="text/css">
	.st0{fill:#FFFFFF;}
</style>
<g>
	<g>
		<path class="st0" d="M28,20.5h16.3c0.8,0,1.5-0.7,1.5-1.5c0-0.8-0.7-1.5-1.5-1.5H28c-0.8,0-1.5,0.7-1.5,1.5
			C26.5,19.8,27.2,20.5,28,20.5z"/>
		<path class="st0" d="M28,28h22.3c0.8,0,1.5-0.7,1.5-1.5c0-0.8-0.7-1.5-1.5-1.5H28c-0.8,0-1.5,0.7-1.5,1.5C26.5,27.4,27.2,28,28,28
			z"/>
		<path class="st0" d="M21.8,9.6h34.7v24c0.6,0.2,1.1,0.4,1.5,0.7c0.7-0.4,1.7-0.9,2.9-0.9c0,0,0.1,0,0.1,0V9.6
			c0-2.5-2.1-4.6-4.6-4.6H21.8c-2.5,0-4.6,2.1-4.6,4.6v51.2c0,2.5,2.1,4.6,4.6,4.6h27.8v-4.6H21.8V9.6z"/>
		<path class="st0" d="M68.2,45c-0.3-0.3-0.7-0.6-0.8-0.9c-0.1-0.3,0-0.8,0.1-1.3c0.2-0.8,0.3-1.6-0.1-2.3c-0.5-0.7-1.4-0.7-2.1-0.8
			c-0.5,0-1-0.1-1.2-0.3c-0.2-0.2-0.4-0.7-0.6-1.1c-0.3-0.7-0.7-1.5-1.5-1.8c-0.1,0-0.3-0.1-0.5-0.1c-0.6,0-1.2,0.3-1.7,0.7
			c-0.4,0.3-0.9,0.5-1.2,0.5c-0.3,0-0.8-0.3-1.2-0.5c-0.6-0.3-1.1-0.7-1.7-0.7c-0.2,0-0.3,0-0.5,0.1c-0.8,0.3-1.1,1.1-1.5,1.8
			c-0.2,0.4-0.4,0.9-0.6,1.1c-0.2,0.2-0.8,0.2-1.2,0.3c-0.8,0.1-1.7,0.2-2.1,0.8c-0.5,0.6-0.3,1.5-0.1,2.3c0.1,0.5,0.2,1,0.1,1.3
			c-0.1,0.3-0.5,0.6-0.8,0.9c-0.6,0.5-1.3,1.1-1.3,2c0,0.8,0.7,1.4,1.3,2c0.3,0.3,0.7,0.6,0.8,0.9c0.1,0.3,0,0.8-0.1,1.3
			c-0.2,0.8-0.3,1.6,0.1,2.3c0.5,0.7,1.4,0.7,2.1,0.8c0.5,0,1,0.1,1.2,0.3c0.2,0.2,0.4,0.7,0.6,1.1c0.3,0.7,0.7,1.5,1.5,1.8
			c0.1,0,0.3,0.1,0.5,0.1c0.6,0,1.2-0.3,1.7-0.7c0.4-0.3,0.9-0.5,1.2-0.5c0.3,0,0.8,0.3,1.2,0.5c0.6,0.3,1.1,0.7,1.7,0.7
			c0.2,0,0.3,0,0.5-0.1c0.8-0.3,1.1-1.1,1.5-1.8c0.2-0.4,0.4-0.9,0.6-1.1c0.2-0.2,0.8-0.2,1.2-0.3c0.8-0.1,1.7-0.2,2.1-0.8
			c0.5-0.6,0.3-1.5,0.1-2.3c-0.1-0.5-0.2-1-0.1-1.3c0.1-0.3,0.5-0.6,0.8-0.9c0.6-0.5,1.3-1.1,1.3-2C69.5,46.1,68.8,45.5,68.2,45z
			 M58.5,51c-2.2,0-4-1.8-4-4c0-2.2,1.8-4,4-4c2.2,0,4,1.8,4,4C62.5,49.2,60.7,51,58.5,51z"/>
		<path class="st0" d="M62.3,58.5c-0.3,0.1-0.5,0.1-0.8,0.1c-0.9,0-1.7-0.5-2.3-0.8c-0.2-0.1-0.5-0.3-0.6-0.3
			c-0.2,0.1-0.4,0.2-0.6,0.3c-0.6,0.4-1.4,0.8-2.3,0.8l0,0c-0.3,0-0.6,0-0.8-0.1c-0.8-0.2-1.3-0.8-1.6-1.3v12.6
			c0,0.2,0.1,0.5,0.4,0.6c0.2,0.1,0.5,0.1,0.7-0.1l4.3-3.9l4.3,3.9c0.1,0.1,0.3,0.2,0.4,0.2c0.1,0,0.2,0,0.3-0.1
			c0.2-0.1,0.4-0.3,0.4-0.6V57.1C63.5,57.7,63,58.2,62.3,58.5z"/>
	</g>
</g>
</svg>
