<?xml version="1.0" encoding="utf-8"?>
<!-- Generator: Adobe Illustrator 22.0.0, SVG Export Plug-In . SVG Version: 6.00 Build 0)  -->
<svg version="1.1" id="Livello_1" xmlns="http://www.w3.org/2000/svg" xmlns:xlink="http://www.w3.org/1999/xlink" x="0px" y="0px"
	 viewBox="0 0 80 80" style="enable-background:new 0 0 80 80;" xml:space="preserve">
<style type="text/css">
	.st0{fill:#FFFFFF;}
</style>
<g>
	<g>
		<path class="st0" d="M21.8,61.9L21.8,61.9c0.4-0.8,1-1.3,1.8-1.7l2.7-1.3l0.1-0.1c-0.1-0.1-0.2-0.2-0.3-0.4
			c-1.2-1.6-1.9-3.7-2-6.2l-0.4-0.2l-1.4-1.2l-2.3,2.3h0l-0.3,0h0l-2.3-2.3l-1.4,1.2l-2.9,1.4c-0.4,0.2-0.9,0.5-1.1,0.9
			c0,0-3.2,7.6-1.5,7.6L21.8,61.9C21.7,62,21.8,61.9,21.8,61.9z"/>
		<path class="st0" d="M14.7,44c0.1,4.7,2.7,7.5,5.3,7.5c2.2,0,5.3-2.8,5.3-7.5c0-3.3-1.5-5.2-5.3-5.2C16.2,38.8,14.6,40.8,14.7,44z
			"/>
		<path class="st0" d="M38.2,60.3c0.9,0.4,1.5,1,1.8,1.7c0,0,0,0,0,0.1h3.5c0-0.1,0-0.1,0-0.1l0,0c0.3-0.7,0.9-1.3,1.8-1.6l2.7-1.3
			l0.1-0.1c-0.1-0.1-0.2-0.2-0.3-0.4c-1.2-1.6-1.9-3.7-2-6.2l-0.4-0.2l-1.4-1.2L42,53.2h0l-0.3,0h0l-2.3-2.3L38,52.1l-0.4,0.2
			c-0.1,2.4-0.8,4.6-2.1,6.2c-0.1,0.1-0.2,0.2-0.2,0.3l0.2,0.2L38.2,60.3z"/>
		<path class="st0" d="M41.8,51.6c2.2,0,5.3-2.8,5.3-7.5c0-3.3-1.5-5.2-5.3-5.2c-3.8,0-5.3,2-5.3,5.2C36.6,48.8,39.2,51.6,41.8,51.6
			z"/>
		<path class="st0" d="M71.5,54.4c-0.2-0.5-0.6-0.7-1.1-0.9l-2.9-1.4l-1.4-1.2l-2.3,2.3h0l-0.3,0h0l-2.3-2.3l-1.4,1.2l-0.4,0.2
			c-0.1,2.4-0.8,4.6-2.1,6.2c-0.1,0.1-0.2,0.2-0.2,0.3l0.2,0.2l2.7,1.3c0.9,0.4,1.5,1,1.8,1.7c0,0,0,0,0,0.1h11
			C74.7,62,71.5,54.4,71.5,54.4z"/>
		<path class="st0" d="M58.4,44c0.1,4.7,2.7,7.5,5.3,7.5c2.2,0,5.3-2.8,5.3-7.5c0-3.3-1.5-5.2-5.3-5.2C59.9,38.8,58.3,40.8,58.4,44z
			"/>
		<path class="st0" d="M37.7,61.6l-2.9-1.4L33.3,59L31,61.3h0h-0.3h0L28.5,59l-1.4,1.2l-2.9,1.4c-0.4,0.2-0.9,0.4-1.1,0.9
			c0,0-3.2,7.6-1.5,7.6h18.6c1.7,0-1.5-7.6-1.5-7.6C38.6,62,38.1,61.7,37.7,61.6z"/>
		<path class="st0" d="M30.9,46.9c-3.8,0-5.3,2-5.3,5.2c0.1,4.7,2.7,7.5,5.3,7.5c2.2,0,5.3-2.8,5.3-7.5
			C36.2,48.9,34.7,46.9,30.9,46.9z"/>
		<path class="st0" d="M59.5,61.6l-2.9-1.4L55.1,59l-2.3,2.3h0h-0.3h0L50.3,59l-1.4,1.2L46,61.6c-0.4,0.2-0.9,0.4-1.1,0.9
			c0,0-3.2,7.6-1.5,7.6H62c1.7,0-1.5-7.6-1.5-7.6C60.4,62,59.9,61.7,59.5,61.6z"/>
		<path class="st0" d="M52.7,59.6c2.2,0,5.3-2.8,5.3-7.5c0-3.3-1.5-5.2-5.3-5.2c-3.8,0-5.3,2-5.3,5.2C47.5,56.8,50.1,59.6,52.7,59.6
			z"/>
		<path class="st0" d="M40,26.3c0.1,0,0.2,0.1,0.2,0.1c0.1,0,0.2,0,0.3-0.1l5.6-4.3c0.1-0.1,0.2-0.3,0.2-0.4c0-0.2-0.1-0.3-0.2-0.4
			l-5.6-4.3c-0.2-0.1-0.4-0.1-0.6-0.1c-0.2,0.1-0.3,0.3-0.3,0.5v8.6C39.7,26,39.8,26.2,40,26.3z"/>
		<path class="st0" d="M13.1,37h57.4c0.4,0,0.8-0.3,0.8-0.8V6.8C71.3,6.4,71,6,70.5,6H13.1c-0.4,0-0.8,0.3-0.8,0.8v29.4
			C12.4,36.6,12.7,37,13.1,37z M41.8,12.7c4.9,0,8.8,3.9,8.8,8.8s-3.9,8.8-8.8,8.8c-4.9,0-8.8-3.9-8.8-8.8
			C33,16.6,37,12.7,41.8,12.7z"/>
	</g>
</g>
</svg>
