<?xml version="1.0" encoding="utf-8"?>
<!-- Generator: Adobe Illustrator 22.0.0, SVG Export Plug-In . SVG Version: 6.00 Build 0)  -->
<svg version="1.1" id="Livello_1" xmlns="http://www.w3.org/2000/svg" xmlns:xlink="http://www.w3.org/1999/xlink" x="0px" y="0px"
	 viewBox="0 0 80 80" style="enable-background:new 0 0 80 80;" xml:space="preserve">
<style type="text/css">
	.st0{fill:#FFFFFF;}
</style>
<path class="st0" d="M35.7,41.9h10.5v3.5H35.7V41.9z"/>
<path class="st0" d="M59.5,45.4h-9.8v1.8c0,1-0.8,1.8-1.8,1.8h-14c-1,0-1.8-0.8-1.8-1.8v-1.8h-9.8c-2.3,0-4.3-1.4-5-3.6L11,22.9
	v38.2c0,2.9,2.4,5.3,5.3,5.3h49.2c2.9,0,5.3-2.4,5.3-5.3V22.9l-6.3,18.9C63.8,43.9,61.8,45.4,59.5,45.4z"/>
<path class="st0" d="M47.9,13.9h-14c-2.9,0-5.3,2.4-5.3,5.3v1.8H14l6.6,19.8c0.2,0.7,0.9,1.2,1.7,1.2h9.8v-1.8c0-1,0.8-1.8,1.8-1.8
	h14c1,0,1.8,0.8,1.8,1.8v1.8h9.8c0.8,0,1.4-0.5,1.7-1.2l6.6-19.8H53.2v-1.8C53.2,16.2,50.8,13.9,47.9,13.9z M32.1,20.9v-1.8
	c0-1,0.8-1.8,1.8-1.8h14c1,0,1.8,0.8,1.8,1.8v1.8H32.1z"/>
</svg>
