<?xml version="1.0" encoding="utf-8"?>
<!-- Generator: Adobe Illustrator 22.0.0, SVG Export Plug-In . SVG Version: 6.00 Build 0)  -->
<svg version="1.1" id="Livello_1" xmlns="http://www.w3.org/2000/svg" xmlns:xlink="http://www.w3.org/1999/xlink" x="0px" y="0px"
	 viewBox="0 0 80 80" style="enable-background:new 0 0 80 80;" xml:space="preserve">
<style type="text/css">
	.st0{fill:#FFFFFF;}
</style>
<g>
	<g>
		<path class="st0" d="M33.5,14.1c0.2,3.8,3.4,6.9,7.3,6.9c4,0,7.2-3.2,7.3-7.1c0,0,0,0,0,0c0,0,0,0,0,0c0-0.1,0-0.1,0-0.2
			c0-4-3.3-7.3-7.3-7.3c-3.7,0-6.7,2.8-7.2,6.3c0,0,0,0,0,0.1c0,0.1,0,0.2,0,0.2c0,0,0,0.1,0,0.1c0,0.1,0,0.1,0,0.2
			c0,0.1,0,0.2,0,0.3c0,0,0,0,0,0.1c0,0,0,0,0,0c0,0,0,0,0,0C33.5,13.9,33.5,14,33.5,14.1z"/>
		<path class="st0" d="M40.6,34.6c0,0,0.1,0,0.1,0c4.7,0,9.5,0,14.3,0c0.2-4.2,0.8-5.3-0.1-7.6c-1.5-3.8-6.4-4.1-7.1-4.2
			c-0.7-0.1-1.5,0-2.3,0c-0.9,2.9-1.2,5.9-2.8,8.6c-0.3-1.8,0,0-0.8-5c1-3.6,0.4-1.3,1-3.6c-0.8,0-4,0-4.8,0c1,3.6,0.2,0.7,1,3.6
			c-0.8,5-0.5,3.2-0.8,5c-1.6-2.7-1.9-5.7-2.8-8.6c-0.8,0-1.6-0.1-2.3,0c-0.7,0.1-5.6,0.4-7.1,4.2c-0.8,2.4-0.3,3.4-0.1,7.6
			C31.2,34.6,35.9,34.6,40.6,34.6z"/>
		<polygon class="st0" points="26.4,42.7 30.1,76.5 51.1,76.5 54.7,42.7 		"/>
		<polygon class="st0" points="66.2,36 15,36 17.7,47.8 25.4,47.8 24.7,41.1 56.5,41.1 55.8,47.8 63.5,47.8 		"/>
	</g>
</g>
</svg>
