<?xml version="1.0" encoding="utf-8"?>
<!-- Generator: Adobe Illustrator 22.0.0, SVG Export Plug-In . SVG Version: 6.00 Build 0)  -->
<svg version="1.1" id="Livello_1" xmlns="http://www.w3.org/2000/svg" xmlns:xlink="http://www.w3.org/1999/xlink" x="0px" y="0px"
	 viewBox="0 0 80 80" style="enable-background:new 0 0 80 80;" xml:space="preserve">
<style type="text/css">
	.st0{fill:#FFFFFF;}
</style>
<g>
	<g>
		<path class="st0" d="M63.9,48.4c-0.6-1.3-1.9-2.2-3.2-2.7l-4.3-2c0-3.1,0-18.8,0-20.4c0-2.6-0.3-4.8-1-6.8l5.3-1.9l0,4.9l-0.4,0
			c-0.3,0-0.5,0.2-0.5,0.4L59.5,24c0,0.1,0,0.2,0.1,0.3c0.1,0.1,0.2,0.2,0.3,0.2l3.7,0c0.1,0,0.2-0.1,0.3-0.2C64,24.3,64,24.1,64,24
			c-0.1-0.8-0.2-1.6-0.3-2.4L63.5,20c0-0.2-0.3-0.4-0.5-0.4l-0.4,0l0-5.6l0.2-0.1l0.6-0.2c0.5-0.2,0.9-0.7,0.9-1.3
			c0-0.6-0.4-1.1-0.9-1.3l-22.2-8C41,3,40.6,3,40.3,3.1l-22.2,8c-0.5,0.2-0.9,0.7-0.9,1.3s0.4,1.1,0.9,1.3l8.1,2.9c-0.7,2-1,4.4-1,7
			l0,20.2l-4.3,2c-1.3,0.5-2.5,1.3-3.2,2.7c0,0-9.4,24.1-4.3,24.1h54.8C73.3,72.5,63.9,48.4,63.9,48.4z M49.4,46.4
			c0,0-7.2,2.4-8.6,10.7c0,0,0,0,0,0c-1.4-8.3-8.6-10.7-8.6-10.7l4.7-4.7c-6.6-3-8.4-13.1-8.4-13.1c-0.4-1.5-0.4-2.5-0.4-2.5
			c3.3-0.2,14.9-1.2,15.7-5c1.1,2,6.9,7.1,9.2,7.5c0,0-2.3,10-8.5,13L49.4,46.4z"/>
	</g>
</g>
</svg>
