<?xml version="1.0" encoding="utf-8"?>
<!-- Generator: Adobe Illustrator 22.0.0, SVG Export Plug-In . SVG Version: 6.00 Build 0)  -->
<svg version="1.1" id="Livello_1" xmlns="http://www.w3.org/2000/svg" xmlns:xlink="http://www.w3.org/1999/xlink" x="0px" y="0px"
	 viewBox="0 0 80 80" style="enable-background:new 0 0 80 80;" xml:space="preserve">
<style type="text/css">
	.st0{fill:#FFFFFF;}
</style>
<g>
	<path class="st0" d="M73.6,32.1l-33-11.2c-0.5-0.2-1.1-0.2-1.6,0L6,32.1c-1,0.4-1.7,1.3-1.7,2.4c0,1.1,0.7,2.1,1.7,2.4l12.8,4.4
		v13.3c0,0.6,0.2,1.2,0.7,1.7c5.2,5.7,12.7,9,20.5,9c7.7,0,14.8-3.1,20.1-8.7c0.4-0.5,0.7-1.1,0.7-1.7V41.3l5.3-1.8v6.4
		c-0.6,0.5-1,1.2-1,2v6.2c0,1.4,1.1,2.5,2.5,2.5s2.5-1.1,2.5-2.5v-6.2c0-0.8-0.4-1.5-1-2v-7.5l4.4-1.5c1-0.4,1.7-1.3,1.7-2.4
		C75.3,33.4,74.6,32.4,73.6,32.1z M55.7,53.8c-4.2,4.1-9.8,6.4-15.7,6.4c-6,0-11.8-2.4-16-6.7V43l15.1,5.1c0.3,0.1,0.5,0.1,0.8,0.1
		c0.3,0,0.6,0,0.8-0.1l15-5.1L55.7,53.8L55.7,53.8z M39.9,43l-25.1-8.5L39.8,26l25.1,8.5L39.9,43z"/>
</g>
</svg>
