<?xml version="1.0" encoding="utf-8"?>
<!-- Generator: Adobe Illustrator 22.0.0, SVG Export Plug-In . SVG Version: 6.00 Build 0)  -->
<svg version="1.1" id="Livello_1" xmlns="http://www.w3.org/2000/svg" xmlns:xlink="http://www.w3.org/1999/xlink" x="0px" y="0px"
	 viewBox="0 0 80 80" style="enable-background:new 0 0 80 80;" xml:space="preserve">
<style type="text/css">
	.st0{fill:#FFFFFF;}
</style>
<g id="XMLID_350_">
	<g id="XMLID_351_">
		<path id="XMLID_352_" class="st0" d="M34.7,21.6h37.1c2.6,0,4.6-2.1,4.6-4.6s-2.1-4.6-4.6-4.6H34.7c-2.6,0-4.6,2.1-4.6,4.6
			S32.1,21.6,34.7,21.6z"/>
	</g>
	<g id="XMLID_439_">
		<path id="XMLID_440_" class="st0" d="M71.8,34H34.7c-2.6,0-4.6,2.1-4.6,4.6c0,2.6,2.1,4.6,4.6,4.6h37.1c2.6,0,4.6-2.1,4.6-4.6
			C76.4,36.1,74.4,34,71.8,34z"/>
	</g>
	<g id="XMLID_441_">
		<path id="XMLID_443_" class="st0" d="M71.8,55.6H34.7c-2.6,0-4.6,2.1-4.6,4.6c0,2.6,2.1,4.6,4.6,4.6h37.1c2.6,0,4.6-2.1,4.6-4.6
			C76.4,57.7,74.4,55.6,71.8,55.6z"/>
	</g>
	<g id="XMLID_444_">
		<path id="XMLID_445_" class="st0" d="M19.5,34.9l-3.1-0.4l-1.4-2.8c-0.4-0.8-1.2-1.3-2.1-1.3c-0.9,0-1.7,0.5-2.1,1.3l-1.4,2.8
			l-3.1,0.4c-0.9,0.1-1.6,0.7-1.9,1.6c-0.3,0.8,0,1.8,0.6,2.4l2.2,2.2l-0.5,3.1c-0.1,0.9,0.2,1.8,0.9,2.3c0.4,0.3,0.9,0.4,1.4,0.4
			c0.4,0,0.7-0.1,1.1-0.3l2.8-1.5l2.8,1.5c0.3,0.2,0.7,0.3,1.1,0.3c0,0,0,0,0,0c1.3,0,2.3-1,2.3-2.3c0-0.2,0-0.4-0.1-0.6l-0.5-2.9
			l2.2-2.2c0.6-0.6,0.9-1.5,0.6-2.4C21.1,35.7,20.4,35,19.5,34.9z"/>
	</g>
	<g id="XMLID_446_">
		<path id="XMLID_447_" class="st0" d="M19.5,13.3l-3.1-0.4L15.1,10c-0.4-0.8-1.2-1.3-2.1-1.3c-0.9,0-1.7,0.5-2.1,1.3l-1.4,2.8
			l-3.1,0.4c-0.9,0.1-1.6,0.7-1.9,1.6c-0.3,0.8,0,1.8,0.6,2.4l2.2,2.2l-0.5,3.1c-0.1,0.9,0.2,1.8,0.9,2.3c0.4,0.3,0.9,0.4,1.4,0.4
			c0.4,0,0.7-0.1,1.1-0.3l2.8-1.5l2.8,1.5c0.3,0.2,0.7,0.3,1.1,0.3c0,0,0,0,0,0c1.3,0,2.3-1,2.3-2.3c0-0.2,0-0.4-0.1-0.6l-0.5-2.9
			l2.2-2.2c0.6-0.6,0.9-1.5,0.6-2.4C21.1,14,20.4,13.4,19.5,13.3z"/>
	</g>
	<g id="XMLID_448_">
		<path id="XMLID_449_" class="st0" d="M19.5,56.6l-3.1-0.4l-1.4-2.8C14.7,52.5,13.9,52,13,52c-0.9,0-1.7,0.5-2.1,1.3l-1.4,2.8
			l-3.1,0.4c-0.9,0.1-1.6,0.7-1.9,1.6c-0.3,0.8,0,1.8,0.6,2.4l2.2,2.2l-0.5,3.1c-0.1,0.9,0.2,1.8,0.9,2.3c0.4,0.3,0.9,0.4,1.4,0.4
			c0.4,0,0.7-0.1,1.1-0.3l2.8-1.5l2.8,1.5c0.3,0.2,0.7,0.3,1.1,0.3c0,0,0,0,0,0c1.3,0,2.3-1,2.3-2.3c0-0.2,0-0.4-0.1-0.6l-0.5-2.9
			l2.2-2.2c0.6-0.6,0.9-1.5,0.6-2.4C21.1,57.3,20.4,56.7,19.5,56.6z"/>
	</g>
</g>
</svg>
